<?xml version="1.0" standalone="no"?>
<!DOCTYPE svg PUBLIC "-//W3C//DTD SVG 20010904//EN"
 "http://www.w3.org/TR/2001/REC-SVG-20010904/DTD/svg10.dtd">
<svg version="1.0" xmlns="http://www.w3.org/2000/svg"
 width="700.000000pt" height="700.000000pt" viewBox="0 0 700.000000 700.000000"
 preserveAspectRatio="xMidYMid meet">
<metadata>
Created by potrace 1.11, written by Peter Selinger 2001-2013
</metadata>
<g transform="translate(0.000000,700.000000) scale(0.100000,-0.100000)"
fill="#000000" stroke="none">
<path d="M4025 5536 c-75 -19 -125 -49 -176 -103 -60 -64 -56 -56 -153 -321
-46 -125 -141 -382 -211 -572 -70 -190 -128 -352 -130 -362 -5 -24 -224 -618
-242 -653 -8 -16 -148 -390 -311 -830 l-297 -800 0 -90 c0 -77 4 -98 26 -146
36 -75 96 -134 177 -172 59 -27 78 -31 152 -31 74 0 93 4 150 30 70 33 141 98
170 154 19 38 690 1852 690 1867 0 11 234 646 254 688 8 17 55 140 104 275 50
135 125 336 166 448 69 184 76 209 76 275 0 87 -18 145 -65 209 -82 113 -244
170 -380 134z"/>
<path d="M4938 4871 c-108 -35 -179 -98 -226 -200 -22 -46 -26 -71 -27 -141 0
-153 -18 -130 459 -608 l421 -423 -414 -412 c-476 -473 -466 -459 -466 -612 0
-76 4 -99 27 -147 95 -203 342 -278 528 -158 25 16 289 273 587 572 624 625
598 592 598 758 0 166 25 134 -593 753 -295 296 -555 551 -577 566 -95 65
-217 86 -317 52z"/>
<path d="M1820 4859 c-50 -19 -105 -71 -618 -583 -646 -644 -627 -621 -627
-776 1 -155 -26 -120 609 -758 440 -442 572 -568 612 -588 184 -90 399 -13
488 176 26 55 30 76 30 145 0 66 -5 91 -29 143 -26 57 -61 95 -446 468 -231
224 -419 410 -419 414 0 5 188 191 419 415 383 372 421 411 447 468 23 51 28
77 28 142 1 70 -3 89 -31 147 -38 81 -97 142 -172 176 -78 37 -210 42 -291 11z"/>
</g>
</svg>
